<svg width="93" height="93" viewBox="0 0 93 93" fill="none" xmlns="http://www.w3.org/2000/svg">
<circle cx="46.5" cy="46.5" r="44.5" fill="#3CB371" stroke="white" stroke-width="4"/>
<path d="M45.9364 65.288C43.9844 65.288 42.3044 65.016 40.8964 64.472C39.5204 63.928 38.3844 63.224 37.4884 62.36C36.5924 61.496 35.9364 60.552 35.5204 59.528C35.1364 58.504 34.9444 57.512 34.9444 56.552C34.9444 55.592 35.1524 54.952 35.5684 54.632C36.0164 54.28 36.7844 54.104 37.8724 54.104C39.1524 54.104 40.0004 54.28 40.4164 54.632C40.8644 54.952 41.0884 55.496 41.0884 56.264C41.0884 56.84 41.2004 57.352 41.4244 57.8C41.6484 58.216 41.9684 58.584 42.3844 58.904C42.8324 59.192 43.3604 59.416 43.9684 59.576C44.6084 59.736 45.3124 59.816 46.0804 59.816C47.8724 59.816 49.1684 59.416 49.9684 58.616C50.8004 57.816 51.2164 56.488 51.2164 54.632V53.72C51.2164 51.96 50.7204 50.76 49.7284 50.12C48.7684 49.48 47.5204 49.16 45.9844 49.16C45.2804 49.16 44.7844 48.904 44.4964 48.392C44.2084 47.88 44.0644 47.32 44.0644 46.712C44.0644 46.104 44.2084 45.544 44.4964 45.032C44.7844 44.52 45.2644 44.264 45.9364 44.264C46.7364 44.264 47.4724 44.168 48.1444 43.976C48.8164 43.752 49.3444 43.304 49.7284 42.632C50.1444 41.96 50.3524 40.936 50.3524 39.56C50.3524 37.96 49.9684 36.856 49.2004 36.248C48.4644 35.64 47.4404 35.336 46.1284 35.336C45.3604 35.336 44.7044 35.416 44.1604 35.576C43.6164 35.704 43.1684 35.912 42.8164 36.2C42.4644 36.488 42.2084 36.824 42.0484 37.208C41.9204 37.592 41.8564 38.04 41.8564 38.552C41.8564 39.256 41.6484 39.832 41.2324 40.28C40.8484 40.728 40.0804 40.952 38.9284 40.952C37.9684 40.952 37.2644 40.872 36.8164 40.712C36.3684 40.552 36.0644 40.28 35.9044 39.896C35.7444 39.48 35.6644 38.936 35.6644 38.264C35.6644 37.4 35.8404 36.488 36.1924 35.528C36.5444 34.568 37.1204 33.656 37.9204 32.792C38.7204 31.928 39.7924 31.24 41.1364 30.728C42.4804 30.184 44.1604 29.912 46.1764 29.912C48.1284 29.912 49.8564 30.184 51.3604 30.728C52.8964 31.272 54.1124 32.168 55.0084 33.416C55.9044 34.664 56.3524 36.36 56.3524 38.504C56.3524 40.392 56.0164 42.056 55.3444 43.496C54.6724 44.936 53.7444 45.928 52.5604 46.472C53.9684 47.016 55.1364 47.864 56.0644 49.016C56.9924 50.168 57.4564 51.736 57.4564 53.72V54.632C57.4564 57.224 56.9284 59.304 55.8724 60.872C54.8484 62.408 53.4564 63.528 51.6964 64.232C49.9684 64.936 48.0484 65.288 45.9364 65.288Z" fill="white"/>
</svg>
