<svg width="93" height="93" viewBox="0 0 93 93" fill="none" xmlns="http://www.w3.org/2000/svg">
<circle cx="46.5" cy="46.5" r="44.5" fill="#3CB371" stroke="white" stroke-width="4"/>
<path d="M47.5294 65C46.7614 65 46.0414 64.84 45.3694 64.52C44.7294 64.168 44.4094 63.656 44.4094 62.984V37.4L42.8734 38.936C42.6814 39.064 42.4894 39.176 42.2974 39.272C42.1054 39.336 41.9294 39.368 41.7694 39.368C41.1614 39.368 40.6654 39.112 40.2814 38.6C39.9294 38.056 39.7534 37.464 39.7534 36.824C39.7534 36.408 39.8494 36.008 40.0414 35.624C40.2334 35.208 40.5214 34.872 40.9054 34.616L46.5694 30.296C46.7614 30.136 46.9534 30.024 47.1454 29.96C47.3694 29.864 47.6254 29.816 47.9134 29.816C48.5534 29.816 49.1614 30.008 49.7374 30.392C50.3454 30.744 50.6494 31.24 50.6494 31.88V62.984C50.6494 63.656 50.3294 64.168 49.6894 64.52C49.0494 64.84 48.3294 65 47.5294 65Z" fill="white"/>
</svg>
