<svg width="93" height="93" viewBox="0 0 93 93" fill="none" xmlns="http://www.w3.org/2000/svg">
<circle cx="46.5" cy="46.5" r="44.5" fill="#3CB371" stroke="white" stroke-width="4"/>
<path d="M38.3668 65C37.8228 65 37.2308 64.824 36.5908 64.472C35.9508 64.088 35.6308 63.592 35.6308 62.984V58.328C35.6308 57.08 35.9988 55.912 36.7348 54.824C37.4708 53.704 38.4308 52.648 39.6148 51.656C40.7988 50.664 42.0468 49.704 43.3588 48.776C44.6708 47.848 45.9028 46.904 47.0548 45.944C48.2388 44.984 49.1988 44.008 49.9348 43.016C50.7028 42.024 51.0868 40.968 51.0868 39.848C51.0868 39.176 50.9268 38.52 50.6068 37.88C50.3188 37.208 49.8388 36.664 49.1668 36.248C48.5268 35.8 47.6788 35.576 46.6228 35.576C45.4708 35.576 44.4628 35.912 43.5988 36.584C42.7668 37.224 42.3508 38.296 42.3508 39.8C42.3508 40.376 42.0628 40.904 41.4868 41.384C40.9108 41.864 40.1108 42.104 39.0868 42.104C38.2548 42.104 37.5828 41.864 37.0708 41.384C36.5588 40.904 36.3028 40.024 36.3028 38.744C36.3028 36.92 36.7828 35.352 37.7428 34.04C38.7028 32.696 39.9668 31.672 41.5348 30.968C43.1348 30.264 44.8308 29.912 46.6228 29.912C48.4788 29.912 50.2228 30.312 51.8548 31.112C53.4868 31.88 54.7988 32.984 55.7908 34.424C56.8148 35.864 57.3268 37.608 57.3268 39.656C57.3268 41.352 56.9588 42.888 56.2228 44.264C55.4868 45.64 54.5428 46.888 53.3908 48.008C52.2388 49.128 51.0068 50.152 49.6948 51.08C48.4148 51.976 47.1988 52.824 46.0468 53.624C44.8948 54.392 43.9508 55.16 43.2148 55.928C42.4788 56.696 42.1108 57.496 42.1108 58.328V59.528H55.4548C55.9988 59.528 56.4628 59.8 56.8468 60.344C57.2308 60.856 57.4228 61.48 57.4228 62.216C57.4228 62.952 57.2308 63.608 56.8468 64.184C56.4628 64.728 55.9988 65 55.4548 65H38.3668Z" fill="white"/>
</svg>
