<svg width="360" height="305" viewBox="0 0 360 305" fill="none" xmlns="http://www.w3.org/2000/svg">
<g opacity="0.05">
<g clip-path="url(#clip0_500_2731)">
<path fill-rule="evenodd" clip-rule="evenodd" d="M3.01422 260.091C2.22772 258.597 2.84299 256.743 4.35004 255.982C54.8654 230.486 80.7662 200.743 82.0531 166.753C82.1107 165.23 80.9593 163.95 79.4506 163.739C57.7556 160.692 39.719 151.433 25.3402 135.96C10.3792 119.861 2.8989 101.226 2.8989 80.0542C2.8989 57.5595 10.1592 38.5937 24.6802 23.1562C39.2011 7.71863 57.462 0 79.4634 0C104.105 0 125.446 10.0342 143.487 30.103C161.528 50.1718 170.549 74.5407 170.549 103.21C170.549 188.425 123.469 255.237 29.308 303.65C27.8515 304.399 26.0483 303.838 25.2853 302.389L3.01422 260.091ZM192.515 260.113C191.705 258.614 192.321 256.735 193.845 255.972C244.758 230.479 270.864 200.742 272.164 166.758C272.222 165.233 271.067 163.952 269.555 163.745C247.434 160.704 229.18 151.443 214.791 135.96C199.83 119.861 192.35 101.226 192.35 80.0542C192.35 57.5595 199.72 38.5937 214.461 23.1562C229.202 7.71863 247.573 0 269.575 0C294.216 0 315.447 10.0342 333.268 30.103C351.09 50.1718 360 74.5407 360 103.21C360 188.429 313.132 255.244 219.393 303.657C217.947 304.404 216.155 303.858 215.381 302.427L192.515 260.113Z" fill="#036994"/>
</g>
</g>
<defs>
<clipPath id="clip0_500_2731">
<rect x="360" y="305" width="360" height="305" transform="rotate(-180 360 305)" fill="white"/>
</clipPath>
</defs>
</svg>
